IKResults
version=1
nRows=24
nColumns=24
inDegrees=yes

Units are S.I. units (second, meters, Newtons, ...)
If the header above contains a line with 'inDegrees', this indicates whether rotational values are in degrees (yes) or radians (no).

endheader
time	pelvis_tilt	pelvis_list	pelvis_rotation	pelvis_tx	pelvis_ty	pelvis_tz	hip_flexion_r	hip_adduction_r	hip_rotation_r	knee_angle_r	ankle_angle_r	subtalar_angle_r	mtp_angle_r	hip_flexion_l	hip_adduction_l	hip_rotation_l	knee_angle_l	ankle_angle_l	subtalar_angle_l	mtp_angle_l	lumbar_extension	lumbar_bending	lumbar_rotation
7.600000	8.470197	6.058688	-180.407902	0.323181	0.319747	-1.228081	104.535557	-31.272841	0.747953	-142.915525	44.934948	12.304589	0.000000	119.909326	-34.842573	21.918069	-141.416834	41.121344	23.102653	0.000000	-16.179266	5.417075	7.906384
7.605000	8.478619	6.067750	-180.400290	0.323195	0.319644	-1.228145	104.550910	-31.299025	0.731824	-142.928290	44.968424	12.337326	0.000000	119.970214	-34.865776	21.956307	-141.412379	41.107715	23.235220	0.000000	-16.175922	5.429825	7.941125
7.610000	8.458787	6.073163	-180.406394	0.323178	0.319603	-1.228206	104.553775	-31.312068	0.712795	-142.951084	44.943289	12.332260	0.000000	119.991853	-34.905271	21.988531	-141.420491	41.150882	23.311080	0.000000	-16.210541	5.429501	7.975314
7.615000	8.477709	6.074824	-180.399386	0.323152	0.319459	-1.228187	104.607025	-31.353655	0.718669	-142.974030	44.950180	12.350404	0.000000	120.051421	-34.924998	21.994573	-141.439426	41.144003	23.351159	0.000000	-16.192856	5.438745	7.982428
7.620000	8.425238	6.099137	-180.435044	0.323130	0.319472	-1.228277	104.541488	-31.339192	0.665851	-142.986532	44.937108	12.368505	0.000000	120.068429	-34.996811	22.078921	-141.451340	41.104651	23.381802	0.000000	-16.274797	5.452505	8.033901
7.625000	8.329360	6.153137	-180.491753	0.323097	0.319605	-1.228464	104.372369	-31.304953	0.535524	-142.985657	44.935328	12.404133	0.000000	120.062437	-35.090492	22.238712	-141.449271	41.092333	23.465235	0.000000	-16.402209	5.487650	8.138696
7.630000	8.312628	6.184460	-180.500886	0.323085	0.319531	-1.228546	104.337805	-31.321626	0.473959	-142.996658	44.959127	12.405085	0.000000	120.106996	-35.118983	22.312224	-141.459073	41.098183	23.582090	0.000000	-16.437266	5.519722	8.148300
7.635000	8.307618	6.185018	-180.506376	0.323048	0.319429	-1.228548	104.354098	-31.348125	0.474727	-143.015393	44.918320	12.450852	0.000000	120.135738	-35.147856	22.342606	-141.469363	41.105341	23.640489	0.000000	-16.446747	5.525471	8.179265
7.640000	8.299187	6.182833	-180.519658	0.323003	0.319345	-1.228538	104.371070	-31.365747	0.477600	-143.035176	44.931191	12.451032	0.000000	120.163090	-35.186303	22.361831	-141.496825	41.100154	23.651863	0.000000	-16.451561	5.545144	8.130244
7.645000	8.302684	6.178730	-180.513477	0.322960	0.319259	-1.228511	104.403827	-31.407007	0.477302	-143.059695	44.927881	12.450580	0.000000	120.191372	-35.201582	22.361681	-141.515799	41.091241	23.678122	0.000000	-16.459813	5.542827	8.198573
7.650000	8.322132	6.177269	-180.518323	0.322927	0.319124	-1.228599	104.429841	-31.414970	0.556504	-143.091532	44.980915	12.757004	0.000000	120.253715	-35.229968	22.388265	-141.523859	41.095834	23.790501	0.000000	-16.438120	5.538209	8.218143
7.655000	8.318644	6.156601	-180.500771	0.322907	0.319004	-1.228657	104.455801	-31.460519	0.523229	-143.098169	45.012393	12.655585	0.000000	120.256814	-35.237978	22.370242	-141.535626	41.097858	23.848637	0.000000	-16.443262	5.511510	8.227881
7.660000	8.479268	6.064454	-180.486891	0.323062	0.318542	-1.228677	104.764853	-31.468578	0.658410	-143.119962	44.942314	12.612561	0.000000	120.344990	-35.272450	22.122194	-141.566961	41.181777	23.677727	0.000000	-16.269390	5.413156	8.182317
7.665000	8.471655	6.068516	-180.486588	0.322999	0.318441	-1.228682	104.774467	-31.495175	0.656593	-143.146444	44.944579	12.614468	0.000000	120.361856	-35.289221	22.125437	-141.591366	41.190879	23.668217	0.000000	-16.280788	5.416804	8.203447
7.670000	8.432921	6.043275	-180.519556	0.322888	0.318434	-1.228602	104.767750	-31.495161	0.704942	-143.164462	44.968016	12.678575	0.000000	120.386348	-35.306092	22.267175	-141.592697	41.028514	23.791625	0.000000	-16.322722	5.402705	8.267977
7.675000	8.418770	6.044588	-180.524720	0.322864	0.318394	-1.228615	104.768247	-31.514660	0.695573	-143.182773	44.956580	12.689119	0.000000	120.390950	-35.314630	22.290678	-141.607672	41.018786	23.793126	0.000000	-16.340881	5.411969	8.330618
7.680000	8.424965	6.037267	-180.519773	0.322886	0.318304	-1.228681	104.795971	-31.534790	0.695746	-143.204505	44.932066	12.697642	0.000000	120.408513	-35.310612	22.298619	-141.612059	41.031507	23.842714	0.000000	-16.342041	5.410140	8.362303
7.685000	8.371102	6.154691	-180.525160	0.322840	0.318393	-1.228903	104.604972	-31.539162	0.581323	-143.215694	44.986899	12.998715	0.000000	120.411537	-35.323957	22.404189	-141.622819	41.169633	23.841498	0.000000	-16.420148	5.519487	8.429053
7.690000	8.379595	6.125942	-180.513840	0.322823	0.318306	-1.228952	104.653657	-31.561847	0.549532	-143.218034	44.996377	12.810803	0.000000	120.403354	-35.325179	22.373672	-141.626906	41.185939	23.898084	0.000000	-16.419071	5.486550	8.454549
7.695000	8.382368	6.126700	-180.517948	0.322793	0.318204	-1.228996	104.677881	-31.565960	0.541647	-143.234760	44.968875	12.792010	0.000000	120.417732	-35.320163	22.388164	-141.633313	41.193469	23.880996	0.000000	-16.428259	5.480440	8.502502
7.700000	8.384216	6.132941	-180.529698	0.322733	0.318122	-1.229018	104.691103	-31.562710	0.536216	-143.253748	44.984623	12.775883	0.000000	120.440349	-35.320721	22.424887	-141.648825	41.185896	23.863799	0.000000	-16.434013	5.483019	8.553258
7.705000	8.381638	6.131716	-180.529565	0.322705	0.318031	-1.229077	104.706420	-31.568226	0.535670	-143.274648	44.985968	12.771980	0.000000	120.447456	-35.314809	22.439060	-141.662540	41.186450	23.856754	0.000000	-16.448501	5.478943	8.564660
7.710000	8.383560	6.127321	-180.523724	0.322729	0.317939	-1.229177	104.714118	-31.562525	0.532350	-143.287941	44.985921	12.773274	0.000000	120.450044	-35.299052	22.449255	-141.661164	41.189483	23.857779	0.000000	-16.460715	5.471653	8.572456
7.715000	8.379269	6.133602	-180.526623	0.322726	0.317867	-1.229289	104.701617	-31.553291	0.518623	-143.300874	45.007502	12.774574	0.000000	120.463425	-35.289787	22.485939	-141.667140	41.188505	23.868108	0.000000	-16.470150	5.483504	8.552544
